# xmcd
#
# Track frame offsets: 
#        150
#        22682
#        44229
#        88833
#        110891
#        138140
#        153393
#        180435
#        204967
#        249673
#        267426
#        290112
#        316756
#
# Disc length: 4564 seconds
#
# Revision: 0
# Processed by: cddbd v1.5.2PL0 Copyright (c) Steve Scherf et al.
# Submitted via: ExactAudioCopy v1.0b3
#
DISCID=b811d20d
DTITLE=Bernard Allison - Songs From The Road
DYEAR=2020
DGENRE=Blues
TTITLE0=Night Train
TTITLE1=Stay With Me Tonight
TTITLE2=You're Gonna Need Me
TTITLE3=I Can't Got You Out of My Mind
TTITLE4=Call Me Momma
TTITLE5=Feels Kind of Funny
TTITLE6=Cruisin For a Bluesin
TTITLE7=Same Ole Feeling
TTITLE8=Let's Try it Again
TTITLE9=Meet Me Half Way
TTITLE10=Backdoor Man
TTITLE11=Something's Wrong
TTITLE12=Slide Master
EXTD=
EXTT0=
EXTT1=
EXTT2=
EXTT3=
EXTT4=
EXTT5=
EXTT6=
EXTT7=
EXTT8=
EXTT9=
EXTT10=
EXTT11=
EXTT12=
PLAYORDER=
